<svg xmlns="http://www.w3.org/2000/svg" viewBox="0 0 32 32"><defs><linearGradient id="a" y1="24" x2="32" y2="24" gradientUnits="userSpaceOnUse"><stop offset="0" stop-color="#787878"/><stop offset=".067" stop-color="gray"/><stop offset=".196" stop-color="#878787"/><stop offset=".5" stop-color="#898989"/><stop offset=".804" stop-color="#878787"/><stop offset=".933" stop-color="gray"/><stop offset="1" stop-color="#787878"/></linearGradient><linearGradient id="b" x1="16" y1="29" x2="16" y2="2" gradientUnits="userSpaceOnUse"><stop offset="0" stop-color="#2d2d2d"/><stop offset="1" stop-color="#3c3c3c"/></linearGradient></defs><path d="M0 16h32v12a4 4 0 0 1-4 4H4a4 4 0 0 1-4-4V16Z" fill="url(#a)"/><rect x="1" y="2" width="30" height="27" rx="4" ry="4" fill="url(#b)"/><path d="M27 4a3 3 0 0 1 3 3v18a3 3 0 0 1-3 3H5a3 3 0 0 1-3-3V7a3 3 0 0 1 3-3h22m0-2H5a5.015 5.015 0 0 0-5 5v18a5.015 5.015 0 0 0 5 5h22a5.015 5.015 0 0 0 5-5V7a5.015 5.015 0 0 0-5-5Z" fill="#282828"/><path d="M27 2a3 3 0 0 1 3 3v20a3 3 0 0 1-3 3H5a3 3 0 0 1-3-3V5a3 3 0 0 1 3-3h22m0-2H5a5.015 5.015 0 0 0-5 5v20a5.015 5.015 0 0 0 5 5h22a5.015 5.015 0 0 0 5-5V5a5.015 5.015 0 0 0-5-5Z" fill="#ededed"/><path d="M14.449 11.446a1 1 0 0 0-.724.961v4.424a1.79 1.79 0 1 0 .858 1.527v-4.827l4.559-1.311v3.065a1.791 1.791 0 1 0 .849 1.7H20v-6.471a.5.5 0 0 0-.638-.481ZM8.378 20.16a.373.373 0 0 1-.318-.176A9.374 9.374 0 0 1 11.016 7.06a.375.375 0 0 1 .4.635A8.626 8.626 0 0 0 8.7 19.586a.374.374 0 0 1-.317.574Z" fill="#1ed760"/><path d="M5.837 21.88a.5.5 0 0 1-.423-.234 12.5 12.5 0 0 1 3.94-17.232.5.5 0 1 1 .531.846A11.5 11.5 0 0 0 6.26 21.115a.5.5 0 0 1-.16.685.507.507 0 0 1-.263.08ZM20.786 23a.375.375 0 0 1-.2-.693 8.626 8.626 0 0 0 2.719-11.891.375.375 0 1 1 .635-.4 9.374 9.374 0 0 1-2.956 12.924.37.37 0 0 1-.198.06Z" fill="#1ed760"/><path d="M22.381 25.663a.5.5 0 0 1-.266-.923A11.5 11.5 0 0 0 25.74 8.885a.5.5 0 1 1 .846-.531 12.5 12.5 0 0 1-3.94 17.232.5.5 0 0 1-.265.077Z" fill="#1ed760"/></svg>