<?xml version="1.0" encoding="UTF-8" standalone="no"?>
<!-- Created with Inkscape (http://www.inkscape.org/) -->

<svg
   width="28.398985mm"
   height="8.4666662mm"
   viewBox="0 0 28.398985 8.4666662"
   version="1.1"
   id="svg21"
   xml:space="preserve"
   inkscape:export-filename="logo-text-light.svg"
   inkscape:export-xdpi="96"
   inkscape:export-ydpi="96"
   xmlns:inkscape="http://www.inkscape.org/namespaces/inkscape"
   xmlns:sodipodi="http://sodipodi.sourceforge.net/DTD/sodipodi-0.dtd"
   xmlns="http://www.w3.org/2000/svg"
   xmlns:svg="http://www.w3.org/2000/svg"><sodipodi:namedview
     id="namedview23"
     pagecolor="#505050"
     bordercolor="#eeeeee"
     borderopacity="1"
     inkscape:showpageshadow="0"
     inkscape:pageopacity="0"
     inkscape:pagecheckerboard="0"
     inkscape:deskcolor="#505050"
     inkscape:document-units="mm"
     showgrid="false" /><defs
     id="defs18"><linearGradient
       id="a"
       y1="24"
       x2="32"
       y2="24"
       gradientUnits="userSpaceOnUse"><stop
         offset="0"
         stop-color="#787878"
         id="stop97" /><stop
         offset=".067"
         stop-color="gray"
         id="stop99" /><stop
         offset=".196"
         stop-color="#878787"
         id="stop101" /><stop
         offset=".5"
         stop-color="#898989"
         id="stop103" /><stop
         offset=".804"
         stop-color="#878787"
         id="stop105" /><stop
         offset=".933"
         stop-color="gray"
         id="stop107" /><stop
         offset="1"
         stop-color="#787878"
         id="stop109" /></linearGradient><linearGradient
       id="b"
       x1="16"
       y1="29"
       x2="16"
       y2="2"
       gradientUnits="userSpaceOnUse"><stop
         offset="0"
         stop-color="#2d2d2d"
         id="stop112" /><stop
         offset="1"
         stop-color="#3c3c3c"
         id="stop114" /></linearGradient></defs><g
     inkscape:label="Layer 1"
     inkscape:groupmode="layer"
     id="layer1"><g
       id="g155"
       transform="scale(0.26458333)"><path
         d="m 0,16 h 32 v 12 a 4,4 0 0 1 -4,4 H 4 A 4,4 0 0 1 0,28 Z"
         fill="url(#a)"
         id="path119"
         style="fill:url(#a)" /><rect
         x="1"
         y="2"
         width="30"
         height="27"
         rx="4"
         ry="4"
         fill="url(#b)"
         id="rect121"
         style="fill:url(#b)" /><path
         d="m 27,4 a 3,3 0 0 1 3,3 v 18 a 3,3 0 0 1 -3,3 H 5 A 3,3 0 0 1 2,25 V 7 A 3,3 0 0 1 5,4 H 27 M 27,2 H 5 A 5.015,5.015 0 0 0 0,7 v 18 a 5.015,5.015 0 0 0 5,5 h 22 a 5.015,5.015 0 0 0 5,-5 V 7 A 5.015,5.015 0 0 0 27,2 Z"
         fill="#282828"
         id="path123" /><path
         d="m 27,2 a 3,3 0 0 1 3,3 v 20 a 3,3 0 0 1 -3,3 H 5 A 3,3 0 0 1 2,25 V 5 A 3,3 0 0 1 5,2 H 27 M 27,0 H 5 A 5.015,5.015 0 0 0 0,5 v 20 a 5.015,5.015 0 0 0 5,5 h 22 a 5.015,5.015 0 0 0 5,-5 V 5 A 5.015,5.015 0 0 0 27,0 Z"
         fill="#ededed"
         id="path125" /><path
         d="m 14.449,11.446 a 1,1 0 0 0 -0.724,0.961 v 4.424 a 1.79,1.79 0 1 0 0.858,1.527 v -4.827 l 4.559,-1.311 v 3.065 a 1.791,1.791 0 1 0 0.849,1.7 H 20 V 10.514 A 0.5,0.5 0 0 0 19.362,10.033 Z M 8.378,20.16 A 0.373,0.373 0 0 1 8.06,19.984 9.374,9.374 0 0 1 11.016,7.06 0.37524159,0.37524159 0 0 1 11.416,7.695 8.626,8.626 0 0 0 8.7,19.586 0.374,0.374 0 0 1 8.383,20.16 Z"
         fill="#1ed760"
         id="path127" /><path
         d="M 5.837,21.88 A 0.5,0.5 0 0 1 5.414,21.646 12.5,12.5 0 0 1 9.354,4.414 0.5,0.5 0 1 1 9.885,5.26 11.5,11.5 0 0 0 6.26,21.115 0.5,0.5 0 0 1 6.1,21.8 0.507,0.507 0 0 1 5.837,21.88 Z M 20.786,23 a 0.375,0.375 0 0 1 -0.2,-0.693 8.626,8.626 0 0 0 2.719,-11.891 0.37524159,0.37524159 0 1 1 0.635,-0.4 A 9.374,9.374 0 0 1 20.984,22.94 0.37,0.37 0 0 1 20.786,23 Z"
         fill="#1ed760"
         id="path129" /><path
         d="M 22.381,25.663 A 0.5,0.5 0 0 1 22.115,24.74 11.5,11.5 0 0 0 25.74,8.885 a 0.5,0.5 0 1 1 0.846,-0.531 12.5,12.5 0 0 1 -3.94,17.232 0.5,0.5 0 0 1 -0.265,0.077 z"
         fill="#1ed760"
         id="path131" /></g><text
       xml:space="preserve"
       style="font-size:5.64444px;fill:#000000;stroke-width:0.264583"
       x="9.6481657"
       y="5.6574197"
       id="text369"><tspan
         sodipodi:role="line"
         id="tspan367"
         style="font-style:normal;font-variant:normal;font-weight:bold;font-stretch:normal;font-size:5.64444px;font-family:sans-serif;-inkscape-font-specification:'sans-serif Bold';fill:#ffffff;stroke-width:0.264583"
         x="9.6481657"
         y="5.6574197">ncspot</tspan></text></g></svg>
